<svg width="47" height="47" viewBox="0 0 47 47" fill="none" xmlns="http://www.w3.org/2000/svg">
<path d="M23.5 0.75C36.0645 0.75 46.25 10.9355 46.25 23.5C46.25 36.0645 36.0645 46.25 23.5 46.25C10.9355 46.25 0.75 36.0645 0.75 23.5C0.75 10.9355 10.9355 0.75 23.5 0.75Z" stroke="#212639" stroke-width="1.5"/>
<path d="M14 44V40.4748C14 36.2173 16.9133 32.5127 21.0507 31.5089V31.5089C22.4304 31.1741 23.8687 31.1623 25.2537 31.4744L25.5931 31.5508C29.9237 32.5265 33 36.3729 33 40.8121V44" stroke="#212639" stroke-width="1.424"/>
<path d="M23.5 13.75C27.2279 13.75 30.25 16.7721 30.25 20.5C30.25 24.2279 27.2279 27.25 23.5 27.25C19.7721 27.25 16.75 24.2279 16.75 20.5C16.75 16.7721 19.7721 13.75 23.5 13.75Z" stroke="#212639" stroke-width="1.5"/>
</svg>
