<svg width="38" height="38" viewBox="0 0 38 38" fill="none" xmlns="http://www.w3.org/2000/svg">
<ellipse cx="18.9199" cy="18.9986" rx="18.9199" ry="18.8348" fill="#BE8938"/>
<path d="M19.2446 38C21.7076 38 24.1465 37.5085 26.422 36.5537C28.6975 35.5989 30.7651 34.1993 32.5067 32.435C34.2483 30.6707 35.6298 28.5762 36.5723 26.271C37.5149 23.9658 38 21.4951 38 19C38 16.5049 37.5149 14.0342 36.5723 11.729C35.6298 9.42383 34.2483 7.32928 32.5067 5.56497C30.7651 3.80066 28.6975 2.40113 26.422 1.44629C24.1465 0.491448 21.7076 -1.4752e-06 19.2446 -1.44711e-06L19.2446 19L19.2446 38Z" fill="#226246"/>
</svg>
