<svg width="184" height="74" viewBox="0 0 184 74" fill="none" xmlns="http://www.w3.org/2000/svg">
<rect width="74" height="74" fill="#FF4016"/>
<path d="M26.512 38.012H20.018V25.024H26.512V38.012ZM33.006 38.012V25.024H39.5V38.012H33.006ZM45.994 38.012V25.024H52.488V38.012H45.994ZM33.006 51H26.512V38.012H33.006V51ZM45.994 51H39.5V38.012H45.994V51Z" fill="black"/>
<path d="M97.776 15.8531V11.5663H102.063V15.8531H97.776ZM97.776 33H93.4893V15.8531H97.776V20.1398H102.063V24.4265H97.776V33ZM110.636 33V28.7133H106.349V15.8531H110.636V28.7133H114.923V15.8531H119.21V33H110.636ZM127.783 28.7133H123.496V11.5663H127.783V15.8531H132.07V20.1398H127.783V28.7133ZM127.783 33V28.7133H132.07V33H127.783ZM140.643 33V28.7133H136.357V15.8531H140.643V28.7133H144.93V15.8531H149.217V33H140.643ZM157.79 33H153.504V15.8531H162.077V20.1398H157.79V33ZM170.651 28.7133H166.364V20.1398H170.651V15.8531H174.937V20.1398H179.224V24.4265H170.651V28.7133ZM170.651 33V28.7133H179.224V33H170.651Z" fill="black"/>
<path d="M97.4929 53.7599H93.2061V45.1864H97.4929V53.7599ZM101.78 53.7599V45.1864H106.066V53.7599H101.78ZM110.353 53.7599V45.1864H114.64V53.7599H110.353ZM101.78 62.3334H97.4929V53.7599H101.78V62.3334ZM110.353 62.3334H106.066V53.7599H110.353V62.3334ZM118.927 40.8997V36.613H123.213V40.8997H118.927ZM123.213 62.3334H118.927V45.1864H123.213V62.3334ZM131.787 49.4732V45.1864H140.36V49.4732H136.073V53.7599H127.5V49.4732H131.787ZM140.36 58.0466H136.073V53.7599H140.36V58.0466ZM136.073 58.0466V62.3334H127.5V58.0466H136.073ZM148.934 58.0466H144.647V49.4732H148.934V45.1864H153.22V49.4732H157.507V53.7599H148.934V58.0466ZM148.934 62.3334V58.0466H157.507V62.3334H148.934Z" fill="black"/>
</svg>
