<svg width="640" height="66" viewBox="0 0 640 66" fill="none" xmlns="http://www.w3.org/2000/svg">
<path d="M504.138 31.1164H498.844V28.3854C498.844 26.2135 497.063 24.4287 494.887 24.4287C492.712 24.4287 490.931 26.2099 490.931 28.3854V31.1164H485.637V28.3854C485.637 23.2603 489.816 19.1387 494.884 19.1387C499.952 19.1387 504.131 23.3177 504.131 28.3854V31.1164H504.138Z" fill="#FFA400"/>
<path d="M506.313 31.1162H483.472C482.469 31.1162 481.691 31.8975 481.691 32.8974V49.778C481.691 50.7815 482.472 51.5592 483.472 51.5592H506.313C507.317 51.5592 508.094 50.7779 508.094 49.778V32.8974C508.037 31.8939 507.259 31.1162 506.313 31.1162ZM496.009 42.2014V44.4844C496.009 45.0973 495.507 45.6528 494.841 45.6528C494.228 45.6528 493.672 45.1511 493.672 44.4844V42.2014C492.948 41.8108 492.504 41.0331 492.504 40.1406C492.504 38.8612 493.561 37.8003 494.844 37.8003C496.127 37.8003 497.185 38.8576 497.185 40.1406C497.242 41.0331 496.74 41.8108 496.016 42.2014H496.009Z" fill="#003A70"/>
<path d="M481.132 28.6078H475.616C474.724 28.6078 474 27.8838 474 26.9914C474 26.099 474.724 25.375 475.616 25.375H481.132C482.025 25.375 482.749 26.099 482.749 26.9914C482.749 27.8838 482.025 28.6078 481.132 28.6078Z" fill="#FFA400"/>
<path d="M485.032 19.9199C484.698 19.9199 484.308 19.8087 484.028 19.5292L479.684 15.9631C479.014 15.4076 478.903 14.4041 479.462 13.6801C480.018 13.0099 481.021 12.8988 481.745 13.4579L486.089 17.024C486.759 17.5795 486.87 18.583 486.311 19.307C485.92 19.6976 485.476 19.9199 485.032 19.9199Z" fill="#FFA400"/>
<path d="M494.891 16.1314C493.999 16.1314 493.275 15.4074 493.275 14.515V8.94548C493.275 8.05306 493.999 7.3291 494.891 7.3291C495.783 7.3291 496.507 8.05306 496.507 8.94548V14.515C496.507 15.4074 495.783 16.1314 494.891 16.1314Z" fill="#FFA400"/>
<path d="M504.697 19.9201C504.252 19.9201 503.751 19.6979 503.471 19.3073C502.916 18.6371 503.027 17.5798 503.693 17.0243L508.037 13.4582C508.707 12.9027 509.765 13.0138 510.32 13.6804C510.876 14.347 510.765 15.4079 510.098 15.9634L505.754 19.5295C505.421 19.809 505.084 19.9201 504.697 19.9201Z" fill="#FFA400"/>
<path d="M514.112 28.6078H508.542C507.65 28.6078 506.926 27.8838 506.926 26.9914C506.926 26.099 507.65 25.375 508.542 25.375H514.112C515.004 25.375 515.728 26.099 515.728 26.9914C515.728 27.8838 515.004 28.6078 514.112 28.6078Z" fill="#FFA400"/>
<path d="M522.79 27.9921V7.38585H527.735V23.6533H535.661V27.9921H522.79ZM552.021 20.9113V22.0606H541.556C541.622 22.4424 541.748 22.8282 541.936 23.1443C542.124 23.4604 542.381 23.7805 542.699 23.9735C543.017 24.228 543.396 24.4209 543.776 24.5482C544.155 24.6754 544.6 24.7411 544.979 24.7411C545.742 24.7411 546.375 24.6138 546.88 24.2937C547.386 24.0392 547.831 23.6574 548.149 23.21L551.446 25.3158C550.748 26.3379 549.859 27.0398 548.782 27.6145C547.704 28.1235 546.37 28.4436 544.914 28.4436C543.837 28.4436 542.821 28.2507 541.871 27.9346C540.92 27.6145 540.096 27.1055 539.333 26.4692C538.635 25.833 538.064 25.0038 537.62 24.0433C537.175 23.0868 536.987 22.0032 536.987 20.7881C536.987 19.5731 537.179 18.5551 537.62 17.5987C537.999 16.6422 538.57 15.8131 539.268 15.1727C539.965 14.5324 540.789 13.9618 541.74 13.6416C542.691 13.2599 543.706 13.0669 544.783 13.0669C545.86 13.0669 546.811 13.2599 547.7 13.5759C548.59 13.9577 549.349 14.4708 549.985 15.107C550.617 15.809 551.127 16.6381 551.441 17.5946C551.821 18.6167 552.013 19.7003 552.013 20.9113H552.021ZM547.647 19.1257C547.647 18.3581 547.394 17.7218 546.95 17.1471C546.505 16.5725 545.746 16.318 544.796 16.318C544.351 16.318 543.906 16.3836 543.527 16.5109C543.148 16.6381 542.829 16.8311 542.511 17.0856C542.193 17.3401 542.005 17.6602 541.813 17.9804C541.622 18.3006 541.561 18.6823 541.495 19.0641H547.647V19.1298V19.1257ZM559.633 17.0856V22.6353C559.633 23.3372 559.76 23.8462 560.013 24.1664C560.266 24.4866 560.71 24.6754 561.408 24.6754C561.661 24.6754 561.914 24.6754 562.171 24.6097C562.424 24.544 562.677 24.4825 562.803 24.4168L562.869 27.9264C562.55 28.0537 562.106 28.1194 561.6 28.2466C561.094 28.3123 560.584 28.3739 560.078 28.3739C559.128 28.3739 558.303 28.2466 557.667 27.9921C557.035 27.7376 556.464 27.4174 556.08 26.97C555.701 26.5226 555.382 25.9479 555.256 25.3117C555.129 24.6754 555.003 23.9735 555.003 23.2059V17.0815H552.657V13.5103H554.942V9.68045H559.633V13.5103H562.995V17.0815H559.633V17.0856ZM567.368 7.00411C565.973 7.00411 564.831 8.02621 564.831 9.36438C564.831 10.7026 565.781 11.6631 567.177 11.6631C567.303 11.6631 567.43 11.6631 567.495 11.5974C567.242 12.6195 566.291 13.383 565.341 13.5103H565.149V15.7433H565.402C566.544 15.616 567.621 15.107 568.446 14.3394C569.523 13.3173 570.094 11.7862 570.094 10.0006C570.094 8.21503 568.951 7 567.368 7V7.00411ZM578.339 17.7875C577.959 17.4057 577.515 17.0856 577.009 16.8311C576.503 16.5766 575.932 16.4493 575.361 16.4493C574.916 16.4493 574.536 16.515 574.157 16.7038C573.778 16.8926 573.586 17.1512 573.586 17.5987C573.586 17.9804 573.778 18.3006 574.218 18.4935C574.663 18.6865 575.295 18.8753 576.246 19.0682C576.817 19.1955 577.323 19.3227 577.894 19.5772C578.465 19.8317 578.91 20.0862 579.35 20.4064C579.795 20.7266 580.175 21.174 580.427 21.683C580.68 22.192 580.807 22.7667 580.807 23.4686C580.807 24.3634 580.615 25.1269 580.236 25.7673C579.856 26.4076 579.412 26.9166 578.779 27.2984C578.208 27.6801 577.51 27.9346 576.813 28.1276C576.05 28.3205 575.356 28.3821 574.594 28.3821C573.39 28.3821 572.248 28.1891 571.171 27.8074C570.028 27.4256 569.078 26.851 568.38 26.149L571.044 23.3413C571.489 23.7888 571.995 24.1705 572.631 24.4907C573.264 24.8109 573.9 24.9381 574.598 24.9381C574.977 24.9381 575.361 24.8724 575.74 24.6836C576.119 24.4948 576.311 24.1746 576.311 23.7272C576.311 23.2798 576.058 22.9596 575.613 22.7051C575.169 22.5122 574.41 22.2577 573.459 22.0688C572.954 21.9416 572.444 21.8143 571.938 21.6214C571.432 21.4285 570.987 21.174 570.608 20.8538C570.228 20.5336 569.91 20.0862 569.657 19.6429C569.404 19.1339 569.278 18.5592 569.278 17.9188C569.278 17.024 569.469 16.3221 569.849 15.6858C570.228 15.0496 570.673 14.6021 571.244 14.2204C571.815 13.8386 572.448 13.5185 573.145 13.3912C573.843 13.1983 574.541 13.1367 575.238 13.1367C576.315 13.1367 577.392 13.3296 578.408 13.6457C579.424 13.9659 580.309 14.4749 581.007 15.1768L578.343 17.7916L578.339 17.7875ZM522.79 51.8535V31.2472H536.551V35.4588H527.547V39.3502H536.045V43.3072H527.547V47.5804H537.057V51.8535H522.79ZM549.548 51.8535V43.9435C549.548 43.5617 549.483 43.1759 549.422 42.7941C549.357 42.4124 549.23 42.0922 549.104 41.8377C548.977 41.5832 548.724 41.3287 548.471 41.2015C548.219 41.0085 547.839 40.947 547.394 40.947C546.95 40.947 546.57 41.0126 546.252 41.2015C545.934 41.3944 545.681 41.5832 545.428 41.9034C545.236 42.2236 545.049 42.5396 544.922 42.9255C544.796 43.3113 544.73 43.6931 544.73 44.0748V51.9233H539.974V37.4414H544.539V39.42H544.604C544.796 39.0998 544.983 38.7837 545.302 38.5251C545.555 38.2049 545.934 37.9504 546.252 37.7575C546.632 37.5646 547.015 37.3757 547.456 37.2485C547.896 37.1212 548.345 37.0556 548.851 37.0556C549.801 37.0556 550.626 37.2485 551.323 37.5646C552.021 37.8847 552.527 38.3937 552.971 38.9027C553.416 39.4774 553.669 40.1137 553.861 40.8156C554.052 41.5175 554.114 42.2194 554.114 42.9829V51.9151H549.548V51.8494V51.8535ZM566.544 42.0265C566.291 41.7063 565.912 41.3903 565.467 41.1973C565.023 41.0044 564.517 40.8772 564.072 40.8772C563.566 40.8772 563.122 41.0044 562.742 41.1973C562.363 41.3903 561.979 41.6448 561.726 42.0265C561.473 42.4083 561.22 42.7284 561.029 43.1759C560.837 43.6233 560.776 44.0707 560.776 44.5797C560.776 45.0887 560.841 45.5362 561.029 45.9836C561.155 46.431 561.408 46.8128 561.726 47.1329C562.045 47.4531 562.359 47.7692 562.803 47.9621C563.248 48.155 563.693 48.2823 564.199 48.2823C564.704 48.2823 565.149 48.2166 565.655 48.0278C566.1 47.8349 566.479 47.5804 566.797 47.1986L569.396 50.4537C568.825 51.0284 568.001 51.4758 567.111 51.7919C566.161 52.1121 565.145 52.3009 564.129 52.3009C562.987 52.3009 561.91 52.108 560.959 51.7919C559.943 51.4717 559.119 50.9627 558.361 50.2608C557.663 49.6246 557.092 48.7954 556.647 47.8349C556.202 46.8784 556.015 45.7948 556.015 44.5797C556.015 43.3647 556.206 42.3467 556.647 41.3903C557.092 40.4338 557.663 39.6047 558.361 38.9643C559.058 38.3281 559.948 37.7534 560.959 37.4332C561.975 37.0515 562.987 36.9242 564.129 36.9242C564.635 36.9242 565.145 36.9899 565.651 37.0515C566.157 37.1787 566.667 37.306 567.107 37.4332C567.552 37.6261 567.997 37.815 568.437 38.0695C568.817 38.324 569.2 38.5785 569.453 38.8986L566.536 42.0265H566.544ZM580.366 41.3246C580.175 41.2589 579.922 41.1973 579.734 41.1973H579.163C578.53 41.1973 578.02 41.3246 577.576 41.5175C577.131 41.772 576.813 42.0265 576.56 42.3467C576.307 42.6669 576.115 43.0486 575.989 43.4304C575.862 43.8121 575.797 44.1323 575.797 44.4525V51.8535H571.04V37.3716H575.605V39.4774H575.671C576.05 38.7098 576.56 38.1392 577.258 37.6918C577.955 37.2444 578.714 36.9899 579.603 36.9899H580.175C580.366 36.9899 580.493 37.0556 580.619 37.0556L580.366 41.3287V41.3246ZM591.528 54.0208C591.21 54.7884 590.896 55.4247 590.578 56.0609C590.198 56.6356 589.815 57.1446 589.309 57.592C588.803 58.0395 588.232 58.294 587.595 58.5485C586.963 58.7414 586.139 58.8686 585.25 58.8686C584.805 58.8686 584.36 58.8686 583.854 58.803C583.41 58.7373 582.965 58.6757 582.651 58.5485L583.157 54.5298C583.41 54.5955 583.663 54.6571 583.92 54.7228C584.173 54.7884 584.426 54.7884 584.683 54.7884C585.445 54.7884 585.951 54.5955 586.27 54.2794C586.588 53.9634 586.902 53.4503 587.094 52.814L587.538 51.6031L581.513 37.3757H586.775L590.011 46.6896H590.076L592.928 37.3757H597.937L591.532 54.029L591.528 54.0208ZM615.243 44.5797C615.243 45.6018 615.117 46.5583 614.799 47.5147C614.48 48.4711 614.036 49.2387 613.469 50.0022C612.897 50.7041 612.139 51.2788 611.315 51.7262C610.49 52.1737 609.475 52.3625 608.398 52.3625C607.508 52.3625 606.684 52.1696 605.86 51.8535C605.097 51.4717 604.465 51.0243 604.02 50.3881H603.955V59H599.198V37.5646H603.702V39.3502H603.767C604.212 38.7755 604.844 38.2665 605.607 37.8191C606.37 37.3716 607.321 37.1828 608.398 37.1828C609.413 37.1828 610.364 37.3757 611.249 37.8191C612.073 38.2008 612.836 38.7755 613.403 39.4774C613.97 40.1793 614.419 41.0085 614.733 41.9034C615.051 42.6053 615.239 43.5617 615.239 44.5838L615.243 44.5797ZM610.613 44.5797C610.613 44.1323 610.548 43.6849 610.421 43.2416C610.295 42.7941 610.042 42.4124 609.789 42.0922C609.536 41.772 609.156 41.4559 608.712 41.263C608.267 41.0701 607.822 40.9428 607.255 40.9428C606.688 40.9428 606.239 41.0701 605.799 41.263C605.354 41.4559 605.036 41.772 604.722 42.0922C604.404 42.4124 604.216 42.8598 604.024 43.3031C603.832 43.7505 603.771 44.198 603.771 44.6413C603.771 45.0846 603.836 45.5362 604.024 45.9795C604.216 46.4269 604.404 46.8086 604.722 47.1904C605.04 47.5106 605.354 47.8266 605.799 48.0196C606.243 48.2125 606.688 48.3398 607.255 48.3398C607.822 48.3398 608.332 48.2125 608.712 48.0196C609.156 47.8266 609.475 47.5106 609.789 47.1904C610.042 46.8702 610.295 46.4228 610.421 45.9795C610.548 45.4705 610.613 45.023 610.613 44.5756V44.5797ZM622.786 40.9428V46.4926C622.786 47.1945 622.913 47.7035 623.166 48.0237C623.419 48.3439 623.864 48.5327 624.561 48.5327C624.814 48.5327 625.067 48.5327 625.324 48.467C625.577 48.4013 625.83 48.3398 625.956 48.2741L626.022 51.7837C625.703 51.911 625.259 51.9766 624.753 52.1039C624.247 52.1696 623.737 52.2311 623.231 52.2311C622.281 52.2311 621.457 52.1039 620.82 51.8494C620.188 51.5949 619.617 51.2747 619.233 50.8273C618.85 50.3799 618.535 49.8052 618.409 49.1689C618.283 48.5327 618.156 47.8308 618.156 47.0631V40.9387H615.871V37.3675H618.156V33.5377H622.786V37.3675H626.148V40.9387H622.786V40.9428Z" fill="#003A70"/>
<path d="M257.915 58.5276L257.917 58.5288C258.939 59.1941 260.258 59.1966 261.29 58.5276H257.915ZM257.915 58.5276L247.762 51.9281C241.22 47.6746 237.274 40.4014 237.274 32.5974V7.44729C237.274 6.963 237.668 6.56934 238.152 6.56934H281.047H281.053C281.537 6.56934 281.931 6.963 281.931 7.44729V32.5974C281.931 40.4014 277.985 47.6745 271.443 51.928C271.443 51.928 271.443 51.9281 271.443 51.928L261.291 58.5269L257.915 58.5276Z" fill="#419C64"/>
<path d="M257.915 58.5276L257.917 58.5288C258.939 59.1941 260.258 59.1966 261.29 58.5276H257.915ZM257.915 58.5276L247.762 51.9281C241.22 47.6746 237.274 40.4014 237.274 32.5974V7.44729C237.274 6.963 237.668 6.56934 238.152 6.56934H281.047H281.053C281.537 6.56934 281.931 6.963 281.931 7.44729V32.5974C281.931 40.4014 277.985 47.6745 271.443 51.928M257.915 58.5276L261.291 58.5269L271.443 51.928M271.443 51.928C271.443 51.9281 271.443 51.928 271.443 51.928Z" stroke="#C9D3D7" stroke-width="4.77798"/>
<path d="M250.414 28.3694L257.182 35.2377L270.72 21.501" stroke="white" stroke-width="5.97248"/>
<path d="M301.968 54.5869C301.351 54.5869 300.742 54.5081 300.139 54.3503C299.552 54.1926 299 53.9704 298.483 53.6836C297.981 53.3825 297.551 53.0383 297.193 52.6512L299.064 50.7584C299.408 51.1313 299.817 51.4252 300.29 51.6403C300.763 51.841 301.279 51.9414 301.839 51.9414C302.226 51.9414 302.52 51.884 302.72 51.7693C302.936 51.6546 303.043 51.4969 303.043 51.2961C303.043 51.038 302.914 50.8445 302.656 50.7154C302.412 50.572 302.097 50.4502 301.71 50.3498C301.322 50.2351 300.914 50.1132 300.484 49.9841C300.053 49.8551 299.645 49.6758 299.258 49.4464C298.87 49.217 298.555 48.9015 298.311 48.5001C298.067 48.0842 297.946 47.5609 297.946 46.9299C297.946 46.256 298.118 45.6753 298.462 45.1878C298.806 44.6859 299.293 44.2916 299.924 44.0048C300.555 43.718 301.294 43.5746 302.14 43.5746C303.029 43.5746 303.846 43.7324 304.592 44.0478C305.352 44.3489 305.968 44.8006 306.441 45.4028L304.57 47.2956C304.24 46.9084 303.868 46.636 303.452 46.4783C303.05 46.3205 302.656 46.2417 302.269 46.2417C301.896 46.2417 301.616 46.299 301.43 46.4137C301.244 46.5141 301.15 46.6647 301.15 46.8654C301.15 47.0805 301.272 47.2526 301.516 47.3816C301.76 47.5107 302.075 47.6254 302.462 47.7258C302.85 47.8261 303.258 47.948 303.688 48.0914C304.119 48.2348 304.527 48.4284 304.914 48.6721C305.301 48.9159 305.617 49.2457 305.861 49.6615C306.104 50.063 306.226 50.5935 306.226 51.2531C306.226 52.2712 305.839 53.0813 305.065 53.6836C304.305 54.2858 303.273 54.5869 301.968 54.5869ZM308.012 54.3288V43.8757H311.302V54.3288H308.012ZM309.668 42.4347C309.152 42.4347 308.721 42.2626 308.377 41.9185C308.048 41.56 307.883 41.1298 307.883 40.628C307.883 40.1118 308.048 39.6816 308.377 39.3375C308.721 38.9933 309.152 38.8213 309.668 38.8213C310.184 38.8213 310.607 38.9933 310.937 39.3375C311.267 39.6816 311.432 40.1118 311.432 40.628C311.432 41.1298 311.267 41.56 310.937 41.9185C310.607 42.2626 310.184 42.4347 309.668 42.4347ZM315.104 54.3288V39.5526H318.395V54.3288H315.104ZM312.738 46.6718V43.8757H320.761V46.6718H312.738ZM327.163 54.5654C326.03 54.5654 325.019 54.336 324.13 53.8772C323.255 53.404 322.567 52.7516 322.065 51.9199C321.563 51.0882 321.312 50.149 321.312 49.1023C321.312 48.0555 321.556 47.1235 322.044 46.3062C322.545 45.4745 323.219 44.8221 324.065 44.3489C324.911 43.8757 325.865 43.6392 326.926 43.6392C327.958 43.6392 328.869 43.8614 329.658 44.3059C330.446 44.7504 331.063 45.367 331.507 46.1556C331.966 46.9443 332.195 47.8476 332.195 48.8657C332.195 49.0521 332.181 49.2529 332.152 49.4679C332.138 49.6687 332.102 49.9053 332.045 50.1777L323.033 50.1992V47.9408L330.647 47.9193L329.227 48.8657C329.213 48.2635 329.12 47.7688 328.948 47.3816C328.776 46.9801 328.518 46.679 328.173 46.4783C327.844 46.2632 327.435 46.1556 326.948 46.1556C326.431 46.1556 325.98 46.2775 325.592 46.5213C325.22 46.7507 324.926 47.0805 324.711 47.5107C324.51 47.9408 324.41 48.4642 324.41 49.0808C324.41 49.6974 324.517 50.2279 324.732 50.6724C324.962 51.1026 325.277 51.4395 325.679 51.6833C326.094 51.9127 326.582 52.0274 327.141 52.0274C327.657 52.0274 328.123 51.9414 328.539 51.7693C328.955 51.5829 329.321 51.3105 329.636 50.952L331.443 52.7587C330.926 53.361 330.303 53.8126 329.572 54.1138C328.84 54.4149 328.037 54.5654 327.163 54.5654ZM341.687 54.5869C341.07 54.5869 340.461 54.5081 339.858 54.3503C339.271 54.1926 338.719 53.9704 338.202 53.6836C337.7 53.3825 337.27 53.0383 336.912 52.6512L338.783 50.7584C339.127 51.1313 339.536 51.4252 340.009 51.6403C340.482 51.841 340.998 51.9414 341.558 51.9414C341.945 51.9414 342.239 51.884 342.439 51.7693C342.655 51.6546 342.762 51.4969 342.762 51.2961C342.762 51.038 342.633 50.8445 342.375 50.7154C342.131 50.572 341.816 50.4502 341.429 50.3498C341.041 50.2351 340.633 50.1132 340.203 49.9841C339.772 49.8551 339.364 49.6758 338.977 49.4464C338.589 49.217 338.274 48.9015 338.03 48.5001C337.786 48.0842 337.665 47.5609 337.665 46.9299C337.665 46.256 337.837 45.6753 338.181 45.1878C338.525 44.6859 339.012 44.2916 339.643 44.0048C340.274 43.718 341.013 43.5746 341.859 43.5746C342.748 43.5746 343.565 43.7324 344.311 44.0478C345.071 44.3489 345.687 44.8006 346.16 45.4028L344.289 47.2956C343.959 46.9084 343.587 46.636 343.171 46.4783C342.769 46.3205 342.375 46.2417 341.988 46.2417C341.615 46.2417 341.335 46.299 341.149 46.4137C340.963 46.5141 340.869 46.6647 340.869 46.8654C340.869 47.0805 340.991 47.2526 341.235 47.3816C341.479 47.5107 341.794 47.6254 342.181 47.7258C342.569 47.8261 342.977 47.948 343.407 48.0914C343.838 48.2348 344.246 48.4284 344.633 48.6721C345.02 48.9159 345.336 49.2457 345.58 49.6615C345.823 50.063 345.945 50.5935 345.945 51.2531C345.945 52.2712 345.558 53.0813 344.784 53.6836C344.024 54.2858 342.992 54.5869 341.687 54.5869ZM352.893 54.5654C351.76 54.5654 350.749 54.336 349.86 53.8772C348.985 53.404 348.297 52.7516 347.795 51.9199C347.293 51.0882 347.042 50.149 347.042 49.1023C347.042 48.0555 347.286 47.1235 347.774 46.3062C348.276 45.4745 348.95 44.8221 349.796 44.3489C350.642 43.8757 351.595 43.6392 352.656 43.6392C353.689 43.6392 354.599 43.8614 355.388 44.3059C356.176 44.7504 356.793 45.367 357.237 46.1556C357.696 46.9443 357.926 47.8476 357.926 48.8657C357.926 49.0521 357.911 49.2529 357.883 49.4679C357.868 49.6687 357.832 49.9053 357.775 50.1777L348.763 50.1992V47.9408L356.377 47.9193L354.958 48.8657C354.943 48.2635 354.85 47.7688 354.678 47.3816C354.506 46.9801 354.248 46.679 353.904 46.4783C353.574 46.2632 353.165 46.1556 352.678 46.1556C352.161 46.1556 351.71 46.2775 351.323 46.5213C350.95 46.7507 350.656 47.0805 350.441 47.5107C350.24 47.9408 350.14 48.4642 350.14 49.0808C350.14 49.6974 350.247 50.2279 350.462 50.6724C350.692 51.1026 351.007 51.4395 351.409 51.6833C351.824 51.9127 352.312 52.0274 352.871 52.0274C353.387 52.0274 353.853 51.9414 354.269 51.7693C354.685 51.5829 355.051 51.3105 355.366 50.952L357.173 52.7587C356.657 53.361 356.033 53.8126 355.302 54.1138C354.57 54.4149 353.767 54.5654 352.893 54.5654ZM363.945 59.0177C362.798 59.0177 361.787 58.8169 360.912 58.4154C360.052 58.0283 359.371 57.4762 358.869 56.7593L360.891 54.7375C361.263 55.182 361.679 55.519 362.138 55.7484C362.611 55.9778 363.178 56.0925 363.837 56.0925C364.655 56.0925 365.293 55.8918 365.752 55.4903C366.225 55.0888 366.461 54.5224 366.461 53.7911V51.1241L367.021 48.8442L366.526 46.5643V43.8757H369.752V53.7051C369.752 54.7805 369.501 55.7125 368.999 56.5012C368.497 57.2898 367.809 57.9064 366.935 58.3509C366.06 58.7954 365.063 59.0177 363.945 59.0177ZM363.794 54.0062C362.834 54.0062 361.98 53.7768 361.235 53.3179C360.489 52.8591 359.901 52.2354 359.471 51.4467C359.041 50.6581 358.826 49.7834 358.826 48.8227C358.826 47.8476 359.041 46.973 359.471 46.1987C359.901 45.41 360.489 44.7934 361.235 44.3489C361.98 43.8901 362.834 43.6607 363.794 43.6607C364.511 43.6607 365.149 43.7969 365.709 44.0693C366.282 44.3274 366.741 44.7002 367.085 45.1878C367.444 45.6609 367.644 46.213 367.687 46.8439V50.823C367.644 51.4395 367.444 51.9916 367.085 52.4791C366.741 52.9523 366.282 53.3251 365.709 53.5975C365.135 53.87 364.497 54.0062 363.794 54.0062ZM364.418 51.0811C364.877 51.0811 365.271 50.9807 365.601 50.7799C365.945 50.5792 366.203 50.3139 366.375 49.9841C366.562 49.64 366.655 49.2529 366.655 48.8227C366.655 48.3925 366.562 48.0054 366.375 47.6612C366.203 47.3171 365.945 47.0447 365.601 46.8439C365.271 46.6432 364.877 46.5428 364.418 46.5428C363.974 46.5428 363.579 46.6432 363.235 46.8439C362.891 47.0447 362.626 47.3171 362.439 47.6612C362.253 48.0054 362.16 48.3925 362.16 48.8227C362.16 49.2242 362.253 49.6042 362.439 49.9626C362.626 50.3068 362.884 50.5792 363.214 50.7799C363.558 50.9807 363.959 51.0811 364.418 51.0811ZM376.721 54.5654C375.76 54.5654 374.907 54.3719 374.161 53.9847C373.43 53.5832 372.856 53.0383 372.44 52.3501C372.025 51.6475 371.817 50.8445 371.817 49.9411V43.8757H375.107V49.8981C375.107 50.2566 375.165 50.5649 375.279 50.823C375.408 51.0811 375.595 51.2818 375.839 51.4252C376.082 51.5686 376.376 51.6403 376.721 51.6403C377.208 51.6403 377.595 51.4897 377.882 51.1886C378.169 50.8732 378.312 50.443 378.312 49.8981V43.8757H381.603V49.9196C381.603 50.8373 381.395 51.6475 380.979 52.3501C380.563 53.0383 379.99 53.5832 379.259 53.9847C378.527 54.3719 377.681 54.5654 376.721 54.5654ZM383.669 54.3288V43.8757H386.96V54.3288H383.669ZM386.96 48.5861L385.583 47.5107C385.856 46.2919 386.315 45.3455 386.96 44.6716C387.605 43.9976 388.501 43.6607 389.648 43.6607C390.15 43.6607 390.588 43.7395 390.96 43.8973C391.348 44.0406 391.685 44.2701 391.971 44.5855L390.014 47.059C389.871 46.9013 389.691 46.7794 389.476 46.6933C389.261 46.6073 389.017 46.5643 388.745 46.5643C388.2 46.5643 387.763 46.7364 387.433 47.0805C387.118 47.4103 386.96 47.9122 386.96 48.5861ZM397.587 54.5654C396.511 54.5654 395.536 54.3288 394.662 53.8557C393.801 53.3681 393.12 52.7085 392.618 51.8769C392.117 51.0452 391.866 50.1132 391.866 49.0808C391.866 48.0484 392.117 47.1235 392.618 46.3062C393.12 45.4889 393.801 44.8436 394.662 44.3704C395.522 43.8829 396.497 43.6392 397.587 43.6392C398.677 43.6392 399.652 43.8757 400.512 44.3489C401.372 44.8221 402.053 45.4745 402.555 46.3062C403.057 47.1235 403.308 48.0484 403.308 49.0808C403.308 50.1132 403.057 51.0452 402.555 51.8769C402.053 52.7085 401.372 53.3681 400.512 53.8557C399.652 54.3288 398.677 54.5654 397.587 54.5654ZM397.587 51.5758C398.06 51.5758 398.476 51.4754 398.834 51.2746C399.193 51.0596 399.465 50.7656 399.652 50.3928C399.852 50.0056 399.953 49.5683 399.953 49.0808C399.953 48.5933 399.852 48.1703 399.652 47.8118C399.451 47.439 399.171 47.1522 398.813 46.9515C398.469 46.7364 398.06 46.6288 397.587 46.6288C397.128 46.6288 396.719 46.7364 396.361 46.9515C396.002 47.1522 395.723 47.439 395.522 47.8118C395.321 48.1846 395.221 48.6148 395.221 49.1023C395.221 49.5755 395.321 50.0056 395.522 50.3928C395.723 50.7656 396.002 51.0596 396.361 51.2746C396.719 51.4754 397.128 51.5758 397.587 51.5758Z" fill="#46494B"/>
<mask id="mask0_2401_6479" style="mask-type:luminance" maskUnits="userSpaceOnUse" x="294" y="5" width="111" height="38">
<path d="M404.504 5.375H294.61V42.5449H404.504V5.375Z" fill="white"/>
</mask>
<g mask="url(#mask0_2401_6479)">
<path d="M341.375 24.4358C341.375 29.5951 337.339 33.397 332.386 33.397C327.433 33.397 323.396 29.5951 323.396 24.4358C323.396 19.2401 327.433 15.4746 332.386 15.4746C337.339 15.4746 341.375 19.2401 341.375 24.4358ZM337.44 24.4358C337.44 21.2117 335.101 19.0057 332.386 19.0057C329.671 19.0057 327.332 21.2117 327.332 24.4358C327.332 27.6275 329.671 29.8658 332.386 29.8658C335.101 29.8658 337.44 27.6235 337.44 24.4358Z" fill="#EA4335"/>
<path d="M360.768 24.4358C360.768 29.5951 356.732 33.397 351.779 33.397C346.826 33.397 342.79 29.5951 342.79 24.4358C342.79 19.2441 346.826 15.4746 351.779 15.4746C356.732 15.4746 360.768 19.2401 360.768 24.4358ZM356.833 24.4358C356.833 21.2117 354.494 19.0057 351.779 19.0057C349.064 19.0057 346.725 21.2117 346.725 24.4358C346.725 27.6275 349.064 29.8658 351.779 29.8658C354.494 29.8658 356.833 27.6235 356.833 24.4358Z" fill="#FBBC05"/>
<path d="M379.353 16.016V32.1041C379.353 38.7219 375.451 41.4248 370.837 41.4248C366.493 41.4248 363.879 38.5199 362.894 36.1443L366.32 34.7181C366.93 36.1766 368.425 37.8977 370.833 37.8977C373.786 37.8977 375.616 36.0756 375.616 32.6455V31.3567H375.479C374.598 32.4435 372.901 33.3929 370.76 33.3929C366.279 33.3929 362.174 29.4901 362.174 24.4681C362.174 19.4098 366.279 15.4746 370.76 15.4746C372.897 15.4746 374.594 16.4241 375.479 17.4785H375.616V16.02H379.353V16.016ZM375.895 24.4681C375.895 21.3127 373.79 19.0057 371.111 19.0057C368.396 19.0057 366.122 21.3127 366.122 24.4681C366.122 27.5912 368.396 29.8658 371.111 29.8658C373.79 29.8658 375.895 27.5912 375.895 24.4681Z" fill="#4285F4"/>
<path d="M385.515 6.58691V32.8482H381.677V6.58691H385.515Z" fill="#34A853"/>
<path d="M400.472 27.3852L403.526 29.4215C402.54 30.88 400.165 33.393 396.06 33.393C390.969 33.393 387.167 29.4579 387.167 24.4319C387.167 19.1028 391.001 15.4707 395.619 15.4707C400.27 15.4707 402.544 19.1715 403.288 21.1714L403.696 22.1895L391.716 27.1509C392.634 28.9488 394.06 29.8659 396.06 29.8659C398.064 29.8659 399.453 28.8801 400.472 27.3852ZM391.07 24.1612L399.078 20.8361C398.637 19.7169 397.312 18.9372 395.753 18.9372C393.753 18.9372 390.969 20.7027 391.07 24.1612Z" fill="#EA4335"/>
<path d="M308.868 22.105V18.3032H321.679C321.804 18.9658 321.869 19.7496 321.869 20.598C321.869 23.4504 321.089 26.9775 318.576 29.4905C316.132 32.0358 313.009 33.3934 308.872 33.3934C301.203 33.3934 294.755 27.1472 294.755 19.4789C294.755 11.8106 301.203 5.56445 308.872 5.56445C313.114 5.56445 316.136 7.22902 318.407 9.39861L315.724 12.0813C314.096 10.5541 311.89 9.36629 308.868 9.36629C303.268 9.36629 298.888 13.8792 298.888 19.4789C298.888 25.0786 303.268 29.5915 308.868 29.5915C312.5 29.5915 314.568 28.133 315.894 26.8078C316.968 25.7331 317.675 24.1978 317.954 22.101L308.868 22.105Z" fill="#4285F4"/>
</g>
<path opacity="0.5" fill-rule="evenodd" clip-rule="evenodd" d="M259.373 61.4131C260.488 61.4595 261.614 61.1654 262.592 60.5309L272.745 53.9314C279.966 49.237 284.32 41.21 284.32 32.5977V7.4476C284.32 5.64391 282.856 4.18066 281.053 4.18066H259.373V8.95864H279.542V32.5977C279.542 39.5934 276.005 46.1129 270.141 49.9255L259.99 56.5234C259.799 56.6471 259.572 56.6705 259.373 56.6015V61.4131Z" fill="white"/>
<path d="M69.411 28.1086C68.6537 28.1086 67.9051 28.0117 67.1654 27.818C66.4433 27.6242 65.7652 27.3512 65.1311 26.999C64.5146 26.6291 63.9863 26.2064 63.5459 25.7308L65.8444 23.4059C66.2671 23.8639 66.7691 24.2249 67.3503 24.4891C67.9316 24.7357 68.5656 24.859 69.2525 24.859C69.7281 24.859 70.0891 24.7885 70.3357 24.6476C70.5999 24.5067 70.732 24.313 70.732 24.0664C70.732 23.7494 70.5735 23.5116 70.2565 23.3531C69.957 23.177 69.5696 23.0272 69.094 22.904C68.6185 22.7631 68.1165 22.6133 67.5881 22.4548C67.0597 22.2963 66.5577 22.0761 66.0822 21.7943C65.6066 21.5125 65.2192 21.125 64.9197 20.6319C64.6203 20.1211 64.4706 19.4782 64.4706 18.7033C64.4706 17.8755 64.682 17.1621 65.1047 16.5633C65.5274 15.9468 66.1262 15.4625 66.9012 15.1102C67.6762 14.758 68.5832 14.5818 69.6224 14.5818C70.7144 14.5818 71.7183 14.7756 72.6342 15.1631C73.5677 15.5329 74.3251 16.0877 74.9063 16.8275L72.6078 19.1524C72.2027 18.6768 71.7448 18.3422 71.234 18.1485C70.7408 17.9547 70.2565 17.8578 69.7809 17.8578C69.323 17.8578 68.9795 17.9283 68.7506 18.0692C68.5216 18.1925 68.4071 18.3774 68.4071 18.624C68.4071 18.8882 68.5568 19.0996 68.8562 19.2581C69.1557 19.4166 69.5431 19.5575 70.0187 19.6808C70.4942 19.8041 70.9962 19.9538 71.5246 20.1299C72.053 20.306 72.555 20.5438 73.0305 20.8432C73.5061 21.1427 73.8935 21.5478 74.193 22.0585C74.4924 22.5517 74.6421 23.2034 74.6421 24.0136C74.6421 25.2641 74.1665 26.2592 73.2154 26.999C72.282 27.7387 71.0138 28.1086 69.411 28.1086ZM76.8351 27.7915V14.9517H80.8773V27.7915H76.8351ZM78.8694 13.1816C78.2353 13.1816 77.707 12.9702 77.2842 12.5475C76.8791 12.1072 76.6766 11.5788 76.6766 10.9624C76.6766 10.3283 76.8791 9.79994 77.2842 9.37723C77.707 8.95452 78.2353 8.74316 78.8694 8.74316C79.5035 8.74316 80.0231 8.95452 80.4282 9.37723C80.8333 9.79994 81.0358 10.3283 81.0358 10.9624C81.0358 11.5788 80.8333 12.1072 80.4282 12.5475C80.0231 12.9702 79.5035 13.1816 78.8694 13.1816ZM85.5467 27.7915V9.64142H89.5889V27.7915H85.5467ZM82.6406 18.3862V14.9517H92.495V18.3862H82.6406ZM100.359 28.0822C98.9673 28.0822 97.7256 27.8004 96.6336 27.2367C95.5592 26.6555 94.7138 25.8541 94.0973 24.8326C93.4809 23.811 93.1726 22.6574 93.1726 21.3716C93.1726 20.0859 93.4721 18.941 94.0709 17.9371C94.6874 16.9156 95.5152 16.1142 96.5543 15.5329C97.5935 14.9517 98.7647 14.6611 100.068 14.6611C101.336 14.6611 102.455 14.9341 103.423 15.4801C104.392 16.0261 105.15 16.7835 105.696 17.7522C106.259 18.7209 106.541 19.8305 106.541 21.081C106.541 21.31 106.523 21.5566 106.488 21.8208C106.471 22.0673 106.426 22.358 106.356 22.6926L95.2862 22.719V19.945L104.639 19.9186L102.895 21.081C102.877 20.3413 102.763 19.7336 102.552 19.2581C102.34 18.7649 102.023 18.395 101.601 18.1485C101.195 17.8843 100.693 17.7522 100.095 17.7522C99.4605 17.7522 98.9057 17.9019 98.4301 18.2013C97.9722 18.4831 97.6111 18.8882 97.3469 19.4166C97.1003 19.945 96.977 20.5879 96.977 21.3452C96.977 22.1026 97.1091 22.7542 97.3733 23.3002C97.6551 23.8286 98.0426 24.2425 98.5358 24.542C99.0466 24.8238 99.6454 24.9647 100.332 24.9647C100.966 24.9647 101.539 24.859 102.05 24.6476C102.56 24.4187 103.01 24.084 103.397 23.6437L105.616 25.8629C104.982 26.6027 104.216 27.1575 103.318 27.5274C102.42 27.8972 101.433 28.0822 100.359 28.0822ZM116.218 27.7915V9.13945H120.339V27.7915H116.218ZM112.625 12.6532V9.13945H120.075V12.6532H112.625ZM130.905 28.0822C129.408 28.0822 128.052 27.6771 126.837 26.8669C125.621 26.0567 124.661 24.9294 123.957 23.4852C123.27 22.0233 122.927 20.3413 122.927 18.4391C122.927 16.5193 123.27 14.846 123.957 13.4194C124.644 11.9751 125.586 10.8567 126.784 10.0641C127.982 9.25394 129.338 8.84884 130.852 8.84884C132.385 8.84884 133.75 9.25394 134.947 10.0641C136.145 10.8567 137.087 11.9751 137.774 13.4194C138.479 14.8636 138.831 16.5457 138.831 18.4655C138.831 20.3853 138.479 22.0673 137.774 23.5116C137.087 24.9559 136.145 26.0831 134.947 26.8933C133.767 27.6859 132.42 28.0822 130.905 28.0822ZM130.879 24.4099C131.654 24.4099 132.323 24.1897 132.887 23.7494C133.45 23.2914 133.882 22.6221 134.181 21.7415C134.498 20.8432 134.657 19.7512 134.657 18.4655C134.657 17.1621 134.498 16.0701 134.181 15.1895C133.882 14.3088 133.45 13.6483 132.887 13.208C132.323 12.7501 131.645 12.5211 130.852 12.5211C130.095 12.5211 129.426 12.7413 128.845 13.1816C128.281 13.6219 127.849 14.2824 127.55 15.1631C127.251 16.0437 127.101 17.1357 127.101 18.4391C127.101 19.7424 127.251 20.8344 127.55 21.7151C127.849 22.5957 128.281 23.265 128.845 23.723C129.426 24.1809 130.104 24.4099 130.879 24.4099ZM148.501 28.0822C147.004 28.0822 145.648 27.6771 144.432 26.8669C143.217 26.0567 142.257 24.9294 141.553 23.4852C140.866 22.0233 140.522 20.3413 140.522 18.4391C140.522 16.5193 140.866 14.846 141.553 13.4194C142.24 11.9751 143.182 10.8567 144.38 10.0641C145.577 9.25394 146.933 8.84884 148.448 8.84884C149.98 8.84884 151.345 9.25394 152.543 10.0641C153.741 10.8567 154.683 11.9751 155.37 13.4194C156.075 14.8636 156.427 16.5457 156.427 18.4655C156.427 20.3853 156.075 22.0673 155.37 23.5116C154.683 24.9559 153.741 26.0831 152.543 26.8933C151.363 27.6859 150.016 28.0822 148.501 28.0822ZM148.475 24.4099C149.25 24.4099 149.919 24.1897 150.482 23.7494C151.046 23.2914 151.478 22.6221 151.777 21.7415C152.094 20.8432 152.253 19.7512 152.253 18.4655C152.253 17.1621 152.094 16.0701 151.777 15.1895C151.478 14.3088 151.046 13.6483 150.482 13.208C149.919 12.7501 149.241 12.5211 148.448 12.5211C147.691 12.5211 147.022 12.7413 146.44 13.1816C145.877 13.6219 145.445 14.2824 145.146 15.1631C144.846 16.0437 144.697 17.1357 144.697 18.4391C144.697 19.7424 144.846 20.8344 145.146 21.7151C145.445 22.5957 145.877 23.265 146.44 23.723C147.022 24.1809 147.7 24.4099 148.475 24.4099ZM162.055 16.6425C161.332 16.6425 160.672 16.4752 160.073 16.1406C159.492 15.7883 159.025 15.3216 158.673 14.7404C158.321 14.1415 158.145 13.4722 158.145 12.7325C158.145 12.0103 158.321 11.3587 158.673 10.7774C159.025 10.1962 159.492 9.73829 160.073 9.40365C160.654 9.05139 161.306 8.87526 162.028 8.87526C162.786 8.87526 163.455 9.05139 164.036 9.40365C164.635 9.73829 165.11 10.1962 165.463 10.7774C165.815 11.3587 165.991 12.0103 165.991 12.7325C165.991 13.4722 165.815 14.1415 165.463 14.7404C165.11 15.3216 164.635 15.7883 164.036 16.1406C163.455 16.4752 162.794 16.6425 162.055 16.6425ZM162.055 13.8949C162.389 13.8949 162.662 13.7893 162.874 13.5779C163.085 13.3665 163.191 13.0935 163.191 12.7589C163.191 12.4242 163.085 12.1512 162.874 11.9399C162.662 11.7285 162.389 11.6229 162.055 11.6229C161.738 11.6229 161.473 11.7285 161.262 11.9399C161.051 12.1512 160.945 12.4242 160.945 12.7589C160.945 13.0935 161.051 13.3665 161.262 13.5779C161.473 13.7893 161.738 13.8949 162.055 13.8949ZM170.562 28.0557C169.839 28.0557 169.179 27.8796 168.58 27.5274C167.999 27.1751 167.532 26.7084 167.18 26.1271C166.828 25.5283 166.652 24.8678 166.652 24.1457C166.652 23.4059 166.828 22.7542 167.18 22.1906C167.532 21.6094 167.999 21.1427 168.58 20.7904C169.161 20.4381 169.813 20.262 170.535 20.262C171.293 20.262 171.962 20.4381 172.543 20.7904C173.142 21.1427 173.617 21.6094 173.97 22.1906C174.322 22.7542 174.498 23.4059 174.498 24.1457C174.498 24.8678 174.322 25.5283 173.97 26.1271C173.617 26.726 173.142 27.2015 172.543 27.5538C171.962 27.8884 171.301 28.0557 170.562 28.0557ZM170.562 25.3081C170.896 25.3081 171.169 25.2024 171.381 24.9911C171.592 24.7797 171.698 24.4979 171.698 24.1457C171.698 23.8286 171.592 23.5644 171.381 23.3531C171.169 23.1241 170.896 23.0096 170.562 23.0096C170.245 23.0096 169.98 23.1241 169.769 23.3531C169.558 23.5644 169.452 23.8286 169.452 24.1457C169.452 24.4979 169.558 24.7797 169.769 24.9911C169.98 25.2024 170.245 25.3081 170.562 25.3081ZM158.884 27.7915L170.06 9.13945H173.758L162.583 27.7915H158.884Z" fill="#46494B"/>
<path d="M71.5862 54.3661C70.5589 54.3661 69.5436 54.2347 68.5402 53.9719C67.5608 53.7091 66.641 53.3388 65.781 52.861C64.9448 52.3593 64.2281 51.786 63.6309 51.1409L66.7485 47.9875C67.3219 48.6086 68.0027 49.0984 68.7911 49.4567C69.5795 49.7912 70.4395 49.9584 71.3712 49.9584C72.0162 49.9584 72.506 49.8628 72.8404 49.6717C73.1988 49.4806 73.378 49.2178 73.378 48.8833C73.378 48.4533 73.1629 48.1308 72.7329 47.9158C72.3268 47.6769 71.8012 47.4738 71.1562 47.3066C70.5112 47.1155 69.8303 46.9124 69.1136 46.6974C68.3969 46.4824 67.716 46.1838 67.071 45.8015C66.426 45.4193 65.9004 44.8937 65.4943 44.2248C65.0882 43.532 64.8851 42.66 64.8851 41.6089C64.8851 40.486 65.1718 39.5185 65.7451 38.7062C66.3185 37.8701 67.1307 37.2131 68.1819 36.7353C69.2331 36.2575 70.4634 36.0186 71.8729 36.0186C73.3541 36.0186 74.7158 36.2814 75.9581 36.807C77.2242 37.3087 78.2515 38.0612 79.0399 39.0646L75.9222 42.2181C75.3728 41.573 74.7516 41.1191 74.0588 40.8563C73.3899 40.5935 72.7329 40.4621 72.0879 40.4621C71.4668 40.4621 71.0009 40.5577 70.6903 40.7488C70.3798 40.9161 70.2245 41.1669 70.2245 41.5014C70.2245 41.8597 70.4276 42.1464 70.8337 42.3614C71.2398 42.5764 71.7654 42.7675 72.4104 42.9348C73.0554 43.102 73.7363 43.305 74.453 43.5439C75.1697 43.7828 75.8506 44.1054 76.4956 44.5115C77.1406 44.9176 77.6662 45.4671 78.0723 46.1599C78.4785 46.8288 78.6815 47.7127 78.6815 48.8117C78.6815 50.5079 78.0365 51.8576 76.7464 52.861C75.4803 53.8644 73.7602 54.3661 71.5862 54.3661ZM90.2565 54.3302C88.3692 54.3302 86.6849 53.948 85.2037 53.1835C83.7465 52.3952 82.5997 51.3082 81.7636 49.9226C80.9274 48.5369 80.5094 46.9721 80.5094 45.2282C80.5094 43.4842 80.9155 41.9314 81.7278 40.5697C82.5639 39.184 83.6867 38.097 85.0962 37.3087C86.5057 36.5203 88.0944 36.1261 89.8623 36.1261C91.5823 36.1261 93.0994 36.4964 94.4133 37.237C95.7272 37.9776 96.7545 39.0049 97.4951 40.3188C98.2596 41.6328 98.6418 43.1378 98.6418 44.834C98.6418 45.1446 98.6179 45.479 98.5701 45.8374C98.5463 46.1718 98.4865 46.566 98.391 47.0199L83.3762 47.0558V43.2931L96.0617 43.2573L93.6966 44.834C93.6727 43.8306 93.5174 43.0064 93.2307 42.3614C92.9441 41.6925 92.5141 41.1908 91.9407 40.8563C91.3912 40.498 90.7104 40.3188 89.8981 40.3188C89.0381 40.3188 88.2855 40.5219 87.6405 40.928C87.0194 41.3102 86.5296 41.8597 86.1713 42.5764C85.8368 43.2931 85.6696 44.1651 85.6696 45.1924C85.6696 46.2196 85.8488 47.1035 86.2071 47.8441C86.5894 48.5608 87.1149 49.1222 87.7838 49.5284C88.4767 49.9106 89.2889 50.1017 90.2206 50.1017C91.0807 50.1017 91.8571 49.9584 92.5499 49.6717C93.2427 49.3611 93.8519 48.9072 94.3775 48.31L97.3876 51.3201C96.5276 52.3235 95.4883 53.076 94.27 53.5777C93.0516 54.0794 91.7137 54.3302 90.2565 54.3302ZM108.67 61.7481C106.759 61.7481 105.075 61.4136 103.617 60.7447C102.184 60.0997 101.049 59.1799 100.213 57.9854L103.582 54.6169C104.203 55.3575 104.896 55.9189 105.66 56.3012C106.448 56.6834 107.392 56.8745 108.491 56.8745C109.853 56.8745 110.916 56.5401 111.68 55.8711C112.469 55.2022 112.863 54.2586 112.863 53.0402V48.5967L113.795 44.7982L112.97 40.9997V36.5203H118.346V52.8968C118.346 54.6886 117.927 56.2414 117.091 57.5554C116.255 58.8693 115.108 59.8966 113.651 60.6372C112.194 61.3778 110.534 61.7481 108.67 61.7481ZM108.419 53.3985C106.819 53.3985 105.397 53.0163 104.155 52.2518C102.913 51.4873 101.933 50.4481 101.217 49.1342C100.5 47.8202 100.141 46.363 100.141 44.7623C100.141 43.1378 100.5 41.6805 101.217 40.3905C101.933 39.0765 102.913 38.0493 104.155 37.3087C105.397 36.5442 106.819 36.162 108.419 36.162C109.614 36.162 110.677 36.3889 111.609 36.8428C112.564 37.2728 113.329 37.894 113.902 38.7062C114.499 39.4946 114.834 40.4144 114.905 41.4655V48.095C114.834 49.1222 114.499 50.042 113.902 50.8543C113.329 51.6426 112.564 52.2638 111.609 52.7177C110.653 53.1716 109.59 53.3985 108.419 53.3985ZM109.459 48.525C110.223 48.525 110.88 48.3578 111.429 48.0233C112.003 47.6888 112.433 47.2469 112.719 46.6974C113.03 46.1241 113.185 45.479 113.185 44.7623C113.185 44.0456 113.03 43.4006 112.719 42.8272C112.433 42.2539 112.003 41.8 111.429 41.4655C110.88 41.1311 110.223 40.9638 109.459 40.9638C108.718 40.9638 108.061 41.1311 107.488 41.4655C106.914 41.8 106.472 42.2539 106.162 42.8272C105.851 43.4006 105.696 44.0456 105.696 44.7623C105.696 45.4312 105.851 46.0643 106.162 46.6616C106.472 47.2349 106.902 47.6888 107.452 48.0233C108.025 48.3578 108.694 48.525 109.459 48.525ZM129.956 54.3302C128.355 54.3302 126.933 54.0077 125.691 53.3627C124.473 52.6938 123.517 51.786 122.824 50.6392C122.132 49.4686 121.785 48.1308 121.785 46.6257V36.5203H127.268V46.5541C127.268 47.1513 127.363 47.665 127.555 48.095C127.77 48.525 128.08 48.8595 128.486 49.0984C128.892 49.3372 129.382 49.4567 129.956 49.4567C130.768 49.4567 131.413 49.2059 131.891 48.7042C132.368 48.1786 132.607 47.4619 132.607 46.5541V36.5203H138.09V46.5899C138.09 48.1189 137.744 49.4686 137.051 50.6392C136.358 51.786 135.402 52.6938 134.184 53.3627C132.966 54.0077 131.556 54.3302 129.956 54.3302ZM141.532 53.9361V36.5203H147.015V53.9361H141.532ZM147.015 44.3681L144.722 42.5764C145.176 40.5458 145.94 38.969 147.015 37.8462C148.09 36.7234 149.583 36.162 151.494 36.162C152.331 36.162 153.059 36.2934 153.68 36.5561C154.325 36.795 154.887 37.1773 155.365 37.7029L152.104 41.8239C151.865 41.5611 151.566 41.358 151.208 41.2147C150.849 41.0713 150.443 40.9997 149.989 40.9997C149.082 40.9997 148.353 41.2864 147.804 41.8597C147.278 42.4092 147.015 43.2453 147.015 44.3681ZM164.721 54.3302C162.929 54.3302 161.304 53.9361 159.847 53.1477C158.414 52.3354 157.279 51.2365 156.443 49.8509C155.607 48.4653 155.189 46.9124 155.189 45.1924C155.189 43.4723 155.607 41.9314 156.443 40.5697C157.279 39.2079 158.414 38.1329 159.847 37.3445C161.28 36.5323 162.905 36.1261 164.721 36.1261C166.536 36.1261 168.161 36.5203 169.594 37.3087C171.028 38.097 172.162 39.184 172.998 40.5697C173.835 41.9314 174.253 43.4723 174.253 45.1924C174.253 46.9124 173.835 48.4653 172.998 49.8509C172.162 51.2365 171.028 52.3354 169.594 53.1477C168.161 53.9361 166.536 54.3302 164.721 54.3302ZM164.721 49.3492C165.509 49.3492 166.202 49.182 166.799 48.8475C167.396 48.4892 167.85 47.9994 168.161 47.3783C168.495 46.7332 168.662 46.0046 168.662 45.1924C168.662 44.3801 168.495 43.6753 168.161 43.0781C167.826 42.457 167.36 41.9792 166.763 41.6447C166.19 41.2864 165.509 41.1072 164.721 41.1072C163.956 41.1072 163.275 41.2864 162.678 41.6447C162.081 41.9792 161.615 42.457 161.28 43.0781C160.946 43.6992 160.779 44.4159 160.779 45.2282C160.779 46.0166 160.946 46.7332 161.28 47.3783C161.615 47.9994 162.081 48.4892 162.678 48.8475C163.275 49.182 163.956 49.3492 164.721 49.3492Z" fill="#46494B"/>
<path fill-rule="evenodd" clip-rule="evenodd" d="M38.2236 41.5276V20.0266C38.2236 13.9244 33.2768 8.97752 27.1746 8.97752C21.0723 8.97752 16.1255 13.9244 16.1255 20.0266V41.5276C16.1255 47.6298 21.0723 52.5766 27.1746 52.5766C33.2768 52.5766 38.2236 47.6298 38.2236 41.5276ZM27.1746 1.81055C17.1141 1.81055 8.9585 9.96615 8.9585 20.0266V41.5276C8.9585 51.588 17.1141 59.7436 27.1746 59.7436C37.235 59.7436 45.3906 51.588 45.3906 41.5276V20.0266C45.3906 9.96615 37.235 1.81055 27.1746 1.81055Z" fill="#C9D3D7"/>
<path d="M47.7798 25.1035H7.16699C5.18788 25.1035 3.5835 26.7079 3.5835 28.687V57.3549C3.5835 59.334 5.18788 60.9384 7.16699 60.9384H47.7798C49.7589 60.9384 51.3633 59.334 51.3633 57.3549V28.687C51.3633 26.7079 49.7589 25.1035 47.7798 25.1035Z" fill="#FFB800"/>
<path d="M17.9175 40.9299L24.6863 47.7982L38.2239 34.0615" stroke="white" stroke-width="5.97248"/>
</svg>
