<svg width="141" height="25" viewBox="0 0 141 25" fill="none" xmlns="http://www.w3.org/2000/svg">
<mask id="mask0_146_813" style="mask-type:luminance" maskUnits="userSpaceOnUse" x="120" y="0" width="21" height="24">
<path d="M132.708 0.269775V2.57473L135.265 3.67633L131.85 9.95412L128.144 3.04811L129.884 2.76496V0.269775H120.497V2.74284L122.808 3.18083L128.505 13.896V20.9037L126.194 21.3063V23.7617H135.405V21.3063L133.094 20.9037V13.0156L138.019 3.9285L140.183 2.44643V0.269775H132.708Z" fill="white"/>
</mask>
<g mask="url(#mask0_146_813)">
<path d="M141.246 -10.1667H121.765V40.6617H141.246V-10.1667Z" fill="#4C89C8"/>
<path d="M123.632 0.128174C117.577 0.128174 111.771 2.72067 107.489 7.33534C103.208 11.95 100.802 18.2089 100.802 24.735H123.632V0.128174Z" fill="#B8CADB"/>
<path d="M135.048 12.4316H123.633V24.735H135.048V12.4316Z" fill="#4C89C8"/>
<path d="M135.048 12.4316V24.735H123.633" fill="#212639"/>
<path d="M135.048 0.128174H123.633V12.4316H135.048V0.128174Z" fill="#4C89C8"/>
</g>
<mask id="mask1_146_813" style="mask-type:luminance" maskUnits="userSpaceOnUse" x="0" y="0" width="19" height="24">
<path d="M14.4197 1.45554C15.002 1.80001 15.5076 2.27708 15.9015 2.85355C16.5301 3.87344 16.8446 5.08085 16.8004 6.30435C16.8309 7.24803 16.6261 8.18327 16.2074 9.0127C15.7887 9.84213 15.1714 10.5354 14.4197 11.0204V11.193C15.0688 11.4842 15.6757 11.8746 16.2216 12.3521C16.8393 12.9127 17.3292 13.6187 17.6537 14.4157C17.9782 15.2126 18.1286 16.0792 18.0934 16.9487C18.0934 19.2714 17.2724 21.0277 15.6634 22.1736C14.1775 23.2309 12.1826 23.7618 9.73216 23.7618H0V21.3064L2.2904 20.9039V3.13669L0 2.76065V0.269882H8.5377C10.076 0.220688 11.6125 0.415969 13.098 0.849438C13.2416 0.898103 13.3812 0.951192 13.5085 1.00871L14.4197 1.45554Z" fill="white"/>
</mask>
<g mask="url(#mask1_146_813)">
<path d="M19.5834 -5.63184H-6.74805V31.1235H19.5834V-5.63184Z" fill="#F79224"/>
<path d="M9.67064 12.1001H-1.35449V23.9832H9.67064V12.1001Z" fill="#293E3F"/>
<path d="M9.67064 0.216797H-1.35449V12.0999H9.67064V0.216797Z" fill="#293E3F"/>
<path d="M9.67077 18.4398C12.7153 18.4398 15.1833 15.7796 15.1833 12.4982C15.1833 9.21677 12.7153 6.55664 9.67077 6.55664C6.62626 6.55664 4.1582 9.21677 4.1582 12.4982C4.1582 15.7796 6.62626 18.4398 9.67077 18.4398Z" fill="#226246"/>
</g>
<mask id="mask2_146_813" style="mask-type:luminance" maskUnits="userSpaceOnUse" x="24" y="0" width="21" height="24">
<path d="M42.5944 19.2847L41.9048 20.0324C41.7308 20.2228 41.5333 20.3866 41.3178 20.519C41.2237 20.5816 41.1191 20.6237 41.01 20.6429C40.8227 20.0946 40.7039 19.5218 40.657 18.9396L40.3327 16.6347C40.1537 15.2169 39.5378 13.905 38.5841 12.9096C38.331 12.6539 38.0561 12.4243 37.7632 12.2239C40.3491 10.9497 40.973 8.62707 40.973 6.68047C40.973 4.46842 40.226 2.79612 38.7524 1.68567C37.3815 0.641583 35.3004 0.132812 32.3532 0.132812H24.4395V2.628L26.7258 3.00405V20.7933L24.4395 21.1959V23.6513H33.6585V21.1738L31.364 20.7933V13.2281H32.3532C33.3548 13.2281 34.0731 13.467 34.4877 13.9404C34.9998 14.588 35.315 15.3895 35.3907 16.2365L35.8668 19.8289C36.068 21.2313 36.4661 22.2312 37.0982 22.8771C37.8531 23.5902 38.8381 23.9542 39.8402 23.8902C40.5475 23.8936 41.2473 23.7337 41.8925 23.4212C42.5926 23.062 43.2128 22.5444 43.7109 21.9038L44.2855 21.2357L42.5944 19.2847Z" fill="white"/>
</mask>
<g mask="url(#mask2_146_813)">
<path d="M42.5122 -3.53931H24.8662V26.9206H42.5122V-3.53931Z" fill="#F79224"/>
<path d="M28.2937 -0.411377C22.4467 -0.411377 16.8392 2.09209 12.7047 6.5483C8.57027 11.0045 6.24756 17.0484 6.24756 23.3504H28.2937V-0.411377Z" fill="#80A9A8"/>
<path d="M28.2937 11.4717V23.3504H17.2686" fill="#BD8836"/>
<path d="M26.96 11.4717V23.3504H37.981" fill="#BD8836"/>
<path d="M37.9851 -0.411377H26.96V11.4717H37.9851V-0.411377Z" fill="#80A9A8"/>
<path d="M37.9808 17.8069C41.0253 17.8069 43.4934 15.1468 43.4934 11.8654C43.4934 8.58395 41.0253 5.92383 37.9808 5.92383C34.9363 5.92383 32.4683 8.58395 32.4683 11.8654C32.4683 15.1468 34.9363 17.8069 37.9808 17.8069Z" fill="#293E3F"/>
</g>
<mask id="mask3_146_813" style="mask-type:luminance" maskUnits="userSpaceOnUse" x="48" y="0" width="22" height="25">
<path d="M66.9468 21.1295L60.1207 0H58.3927L51.1151 20.5942L48.4717 21.7577V24.0317H55.6959V21.7798L53.7174 20.8331L55.1705 16.7673H60.4655L61.9678 21.2799L60.2603 21.5719V24.0317H69.4753V21.5763L66.9468 21.1295Z" fill="white"/>
</mask>
<g mask="url(#mask3_146_813)">
<path d="M70.0255 -30.2874H47.9424V30.5395H70.0255V-30.2874Z" fill="#4C89C8"/>
<path d="M88.2501 -0.199219C82.1951 -0.199219 76.3882 2.39328 72.1067 7.00795C67.8252 11.6226 65.4199 17.8815 65.4199 24.4076H88.2501V-0.199219Z" fill="#B8CADB"/>
<path d="M42.5859 12.1042V24.4077H54.001" fill="#BD8836"/>
<path d="M54.001 -0.199219H42.5859V12.1042H54.001V-0.199219Z" fill="#80A9A8"/>
<path d="M54.0009 18.6652C57.1519 18.6652 59.7064 15.912 59.7064 12.5157C59.7064 9.11943 57.1519 6.36621 54.0009 6.36621C50.8498 6.36621 48.2954 9.11943 48.2954 12.5157C48.2954 15.912 50.8498 18.6652 54.0009 18.6652Z" fill="#293E3F"/>
</g>
<mask id="mask4_146_813" style="mask-type:luminance" maskUnits="userSpaceOnUse" x="73" y="0" width="22" height="25">
<path d="M91.9077 21.1295L85.0817 0H83.3536L76.0801 20.5942L73.4326 21.7577V24.0317H80.6568V21.7798L78.6825 20.8331L80.1355 16.7673H85.4306L86.9329 21.2799L85.2253 21.5719V24.0317H94.4362V21.5763L91.9077 21.1295Z" fill="white"/>
</mask>
<g mask="url(#mask4_146_813)">
<path d="M97.2886 -5.50366H70.0254V32.4108H97.2886V-5.50366Z" fill="#4C89C8"/>
<path d="M94.4361 12.0156V24.319H83.021" fill="#B8CADB"/>
<path d="M83.0249 12.0156L94.4399 12.0156V-0.28778L83.0249 -0.28778V12.0156Z" fill="#293E3F"/>
<path d="M83.021 18.581C83.7834 18.603 84.5422 18.4602 85.2525 18.161C85.9629 17.8617 86.6104 17.4121 87.1569 16.8387C87.7034 16.2653 88.1377 15.5797 88.4343 14.8224C88.7309 14.065 88.8837 13.2513 88.8837 12.4293C88.8837 11.6073 88.7309 10.7936 88.4343 10.0362C88.1377 9.27892 87.7034 8.5933 87.1569 8.01988C86.6104 7.44647 85.9629 6.99687 85.2525 6.69762C84.5422 6.39838 83.7834 6.25556 83.021 6.2776" fill="#4C89C8"/>
<path d="M83.0209 18.5812C81.5336 18.5382 80.1207 17.8713 79.0829 16.7223C78.0451 15.5733 77.4644 14.0331 77.4644 12.4295C77.4644 10.826 78.0451 9.28577 79.0829 8.13679C80.1207 6.98781 81.5336 6.32082 83.0209 6.27783" fill="#BD8836"/>
</g>
<mask id="mask5_146_813" style="mask-type:luminance" maskUnits="userSpaceOnUse" x="98" y="0" width="22" height="25">
<path d="M116.872 21.1295L110.046 0H108.318L101.044 20.5942L98.397 21.7577V24.0317H105.621V21.7798L103.643 20.8331L105.1 16.7673H110.395L111.893 21.2799L110.186 21.5719V24.0317H119.401V21.5763L116.872 21.1295Z" fill="white"/>
</mask>
<g mask="url(#mask5_146_813)">
<path d="M110.518 -11.9495H101.184V32.1499H110.518V-11.9495Z" fill="#4C89C8"/>
<path d="M107.744 -0.442383C101.689 -0.442383 95.8819 2.15011 91.6004 6.76479C87.3189 11.3795 84.9136 17.6383 84.9136 24.1644H107.744V-0.442383Z" fill="#B8CADB"/>
<path d="M119.159 11.8611H107.744V24.1645H119.159V11.8611Z" fill="#4C89C8"/>
<path d="M119.159 11.8611V24.1645H107.744" fill="#212639"/>
<path d="M119.159 -0.442383H107.744V11.861H119.159V-0.442383Z" fill="#4C89C8"/>
</g>
</svg>
